# xmcd CD database file
#
# Track frame offsets:
#	187
#	19212
#	35440
#	51320
#	67105
#	91430
#	113267
#	127995
#	147787
#	167145
#
# Disc length: 2523 seconds
#
# Revision: 5
# Processed by: cddbd v1.5.2PL0 Copyright (c) Steve Scherf et al.
# Submitted via: CDex 1.70beta2
#
DISCID=8409d90a
DTITLE=Graham Bonnet - Underground
DYEAR=1997
DGENRE=Hard Rock
TTITLE0=Underground
TTITLE1=Whiplash
TTITLE2=Breakaway
TTITLE3=Movin' On
TTITLE4=The Strange
TTITLE5=Sail On
TTITLE6=The Wind Cries Mary
TTITLE7=Caiun Pink
TTITLE8=Winter Skin
TTITLE9=Lost In Hollywood
EXTD=YEAR: 1997
EXTT0=
EXTT1=
EXTT2=
EXTT3=
EXTT4=
EXTT5=
EXTT6=
EXTT7=
EXTT8=
EXTT9=
PLAYORDER=
